<svg width="53px" height="16px" viewBox="0 0 53 16" version="1.1" xmlns="http://www.w3.org/2000/svg" xmlns:xlink="http://www.w3.org/1999/xlink">
    <title>Logo</title>
    <g id="Facilities" stroke="none" stroke-width="1" fill="none" fill-rule="evenodd">
        <g id="New-facility" transform="translate(-30.000000, -23.000000)" fill="#FF5722">
            <g id="Logo" transform="translate(30.000000, 23.000000)">
                <g id="ASLM">
                    <path d="M22.5936541,0.000202017651 L26.5936036,0.000202017651 L32.4359541,16 L28.967311,16 L27.6360147,12.097019 L21.4764965,12.097019 L20.1674221,16 L14.3998182,16 L14.3998182,7.66273153 L14.5452709,2.98198255 L14.4947665,2.98198255 L10.0584589,16 L7.31909951,16 L2.90905418,2.98198255 L2.85854977,2.98198255 L3.03026477,7.66273153 L3.03026477,16 L0,16 L0,0.000202017651 L4.84842363,0.000202017651 L7.73121551,8.72736455 L8.74938448,12.3394402 L8.79988889,12.3394402 L9.84027979,8.75362685 L12.7008497,0.000202017651 L17.4038207,0.000202017651 L17.4038207,14.2081034 L22.5936541,0.000202017651 Z M23.8542443,5.06680471 L22.3027487,9.6263431 L26.8117827,9.6263431 L25.3087714,5.11528895 L24.5815078,2.69107713 L24.5310034,2.69107713 L23.8542443,5.06680471 Z M48.3353619,6.96960897 C48.8202043,6.55749296 49.0626255,5.93931895 49.0626255,5.11508693 C49.0626255,4.29085491 48.8202043,3.67672125 48.3353619,3.27268595 C47.8505196,2.86865065 47.0909332,2.666633 46.0566028,2.666633 L43.1960329,2.666633 L43.1960329,7.58778298 L46.0566028,7.58778298 C47.0909332,7.58778298 47.8505196,7.38172498 48.3353619,6.96960897 Z M50.9050265,1.34543756 C51.9393568,2.24239593 52.456522,3.50702643 52.456522,5.13932905 C52.456522,6.72314744 51.9393568,7.95949546 50.9050265,8.84837313 C49.8706961,9.73725079 48.4242497,10.1816896 46.5656873,10.1816896 L43.1960329,10.1816896 L43.1960329,15.999798 L37.0385349,15.999798 L35.7072385,12.096817 L33.0204038,12.096817 L32.1173849,9.62412091 L34.8809864,9.62412091 L33.377975,5.11508693 L32.6507115,2.69087512 L32.6022272,2.69087512 L31.9234479,5.06660269 L31.214366,7.15142486 L29.6325678,2.82218659 L30.6628578,1.77635684e-15 L34.6628073,1.77635684e-15 L39.8506206,14.2058812 L39.8506206,1.77635684e-15 L46.5656873,1.77635684e-15 C48.4242497,1.77635684e-15 49.8706961,0.448479186 50.9050265,1.34543756 Z" id="Shape"></path>
                </g>
            </g>
        </g>
    </g>
</svg>
